<svg xmlns="http://www.w3.org/2000/svg" viewBox="0 0 900 300">
  <rect width="900" height="300" fill="#c8d8b0"/>
  <rect y="180" width="900" height="120" fill="#7a9a5a"/>
  <rect y="170" width="900" height="20" fill="#9ab87a"/>
  <!-- Sky -->
  <circle cx="780" cy="60" r="40" fill="#f0e8c0" opacity="0.8"/>
  <!-- Barn silhouette -->
  <polygon points="150,180 150,120 200,90 250,120 250,180" fill="#8b4513" opacity="0.6"/>
  <rect x="170" y="140" width="30" height="40" fill="#6b3510" opacity="0.6"/>
  <!-- Fence -->
  <line x1="280" y1="175" x2="500" y2="175" stroke="#8b7355" stroke-width="2"/>
  <line x1="300" y1="165" x2="300" y2="180" stroke="#8b7355" stroke-width="2"/>
  <line x1="350" y1="165" x2="350" y2="180" stroke="#8b7355" stroke-width="2"/>
  <line x1="400" y1="165" x2="400" y2="180" stroke="#8b7355" stroke-width="2"/>
  <line x1="450" y1="165" x2="450" y2="180" stroke="#8b7355" stroke-width="2"/>
  <!-- Sheep silhouettes -->
  <ellipse cx="380" cy="160" rx="20" ry="12" fill="#f0f0e8" opacity="0.8"/>
  <circle cx="365" cy="152" r="6" fill="#f0f0e8" opacity="0.8"/>
  <ellipse cx="440" cy="162" rx="18" ry="11" fill="#e8e8e0" opacity="0.7"/>
  <circle cx="425" cy="155" r="5" fill="#e8e8e0" opacity="0.7"/>
  <ellipse cx="550" cy="165" rx="16" ry="10" fill="#f0f0e8" opacity="0.6"/>
  <!-- Text -->
  <text x="450" y="240" text-anchor="middle" font-family="Georgia, serif" font-size="14" fill="#3a5a1a" opacity="0.6" font-style="italic">Replace with farm landscape photo from archive</text>
</svg>
