<svg xmlns="http://www.w3.org/2000/svg" viewBox="0 0 900 220">
  <rect width="900" height="220" fill="#f0ead8"/>
  <!-- Yarn ball -->
  <circle cx="200" cy="110" r="50" fill="#8b7355"/>
  <path d="M 165 90 Q 200 60 235 90" stroke="#a08a6a" fill="none" stroke-width="2"/>
  <path d="M 160 110 Q 200 80 240 110" stroke="#a08a6a" fill="none" stroke-width="2"/>
  <path d="M 165 130 Q 200 100 235 130" stroke="#a08a6a" fill="none" stroke-width="2"/>
  <!-- Socks outline -->
  <path d="M 370 60 L 370 130 Q 370 160 400 160 L 430 160 Q 450 160 450 140 L 450 130 L 390 130 L 390 60 Z" fill="#c8b898" stroke="#a09878" stroke-width="1.5"/>
  <!-- Fleece cloud shape -->
  <ellipse cx="600" cy="110" rx="60" ry="40" fill="#e8e0d0"/>
  <circle cx="570" cy="90" r="20" fill="#ece4d4"/>
  <circle cx="600" cy="80" r="22" fill="#ece4d4"/>
  <circle cx="630" cy="90" r="20" fill="#ece4d4"/>
  <circle cx="580" cy="120" r="18" fill="#ece4d4"/>
  <circle cx="620" cy="120" r="18" fill="#ece4d4"/>
  <!-- Horn -->
  <path d="M 780 140 Q 770 100 790 70 Q 810 50 820 80" stroke="#6a5a3a" fill="none" stroke-width="6" stroke-linecap="round"/>
  <!-- Labels -->
  <text x="200" y="185" text-anchor="middle" font-family="Georgia, serif" font-size="12" fill="#5a5a3a">Yarn</text>
  <text x="410" y="185" text-anchor="middle" font-family="Georgia, serif" font-size="12" fill="#5a5a3a">Socks</text>
  <text x="600" y="185" text-anchor="middle" font-family="Georgia, serif" font-size="12" fill="#5a5a3a">Fleece</text>
  <text x="795" y="185" text-anchor="middle" font-family="Georgia, serif" font-size="12" fill="#5a5a3a">Horns</text>
  <text x="450" y="210" text-anchor="middle" font-family="Georgia, serif" font-size="11" fill="#8b7355" font-style="italic">Replace with original product photos</text>
</svg>
